<?xml version="1.0" encoding="UTF-8" standalone="no"?>
<!DOCTYPE svg PUBLIC "-//W3C//DTD SVG 1.1//EN" "http://www.w3.org/Graphics/SVG/1.1/DTD/svg11.dtd">
<svg width="100%" height="100%" viewBox="0 0 413 442" version="1.1" xmlns="http://www.w3.org/2000/svg" xmlns:xlink="http://www.w3.org/1999/xlink" xml:space="preserve" xmlns:serif="http://www.serif.com/" style="fill-rule:evenodd;clip-rule:evenodd;stroke-linejoin:round;stroke-miterlimit:2;">
    <g transform="matrix(0.095238,0,0,0.095238,-128.524,-86.8571)">
        <path d="M5071,1065L4998,1218L4948,1189C4921,1173 4856,1133 4804,1100C4747,1065 4708,1046 4706,1053C4705,1060 4727,1134 4756,1216C4785,1299 4808,1368 4806,1370C4805,1371 4731,1389 4642,1410C4553,1431 4478,1450 4476,1452C4472,1456 4648,1553 4728,1590C4749,1601 4767,1612 4767,1616C4767,1629 4704,1647 4660,1647C4603,1647 4585,1636 4489,1542C4383,1438 4334,1412 4248,1413C4162,1414 4096,1448 3997,1542L3920,1614L3837,1587C3724,1550 3556,1546 3511,1579C3494,1592 3438,1681 3375,1795L3267,1988L3106,1990C2836,1994 2620,2042 2384,2149C1851,2393 1479,2875 1369,3465C1343,3603 1343,3923 1369,4067C1395,4213 1471,4438 1537,4569C1751,4991 2139,5321 2588,5462C3382,5712 4252,5365 4665,4633C4876,4260 4940,3828 4851,3388C4806,3169 4684,2901 4541,2704C4477,2616 4318,2450 4228,2376L4178,2335L4273,2164C4384,1964 4389,1939 4334,1866C4314,1839 4259,1794 4204,1757C4151,1723 4099,1688 4088,1681C4070,1669 4073,1665 4121,1621C4224,1527 4279,1530 4384,1637C4472,1726 4534,1767 4604,1784C4633,1791 4658,1798 4660,1800C4662,1801 4651,1822 4636,1846C4621,1870 4610,1894 4612,1898C4613,1902 4685,1881 4771,1850C4857,1819 4930,1796 4932,1798C4935,1801 4953,1873 4973,1959C4993,2044 5010,2119 5012,2125C5014,2131 5051,2066 5093,1980C5135,1895 5172,1826 5176,1826C5179,1826 5246,1866 5324,1914C5401,1963 5467,2001 5468,1999C5470,1998 5445,1923 5414,1833L5357,1670L5515,1632C5603,1611 5678,1591 5684,1587C5689,1584 5625,1549 5543,1509C5460,1469 5391,1435 5389,1432C5387,1430 5425,1363 5474,1283C5523,1203 5562,1137 5560,1135C5559,1133 5485,1158 5395,1189L5233,1246L5194,1079C5172,987 5152,912 5149,912C5146,912 5111,981 5071,1065ZM5119,1385C5127,1432 5127,1432 5186,1411C5235,1394 5237,1397 5208,1445C5196,1464 5187,1483 5187,1488C5187,1493 5206,1505 5229,1516C5278,1538 5276,1547 5219,1556C5171,1564 5171,1565 5192,1625C5209,1674 5205,1676 5161,1647C5117,1618 5109,1620 5087,1668C5077,1691 5065,1707 5061,1705C5057,1702 5050,1680 5046,1656C5039,1610 5039,1610 4957,1633L4931,1640L4954,1601C4967,1579 4977,1557 4977,1552C4977,1547 4957,1532 4932,1519L4888,1496L4935,1484C4985,1472 4989,1464 4972,1401L4963,1370L5002,1393C5024,1406 5046,1416 5051,1416C5057,1416 5069,1397 5078,1374C5098,1324 5109,1327 5119,1385ZM3772,1717C3837,1735 3842,1744 3814,1781L3796,1804L3726,1763C3688,1740 3651,1713 3642,1703C3629,1687 3631,1686 3670,1693C3693,1697 3739,1708 3772,1717ZM4048,1827C4082,1845 4132,1877 4158,1897L4205,1933L4148,1925C4116,1921 4053,1906 4008,1892C3928,1867 3926,1866 3940,1843C3948,1831 3958,1814 3963,1807C3973,1789 3977,1790 4048,1827ZM3648,1884L3684,1911L3610,2054C3569,2134 3532,2202 3528,2207C3521,2215 3484,2196 3445,2165C3438,2159 3595,1857 3605,1857C3610,1857 3629,1869 3648,1884ZM3826,1974L3852,1986L3778,2132C3737,2213 3698,2281 3691,2284C3684,2286 3666,2283 3650,2277L3621,2267L3698,2115C3740,2031 3780,1963 3787,1963C3794,1962 3812,1967 3826,1974ZM2964,2272C3086,2303 3154,2356 3200,2454C3223,2503 3225,2521 3222,2596C3215,2716 3160,2829 3053,2944C2818,3197 2482,3334 2172,3304C1858,3274 1743,3008 1924,2731C2067,2513 2338,2333 2620,2271C2707,2252 2890,2252 2964,2272Z" style="fill-rule:nonzero;"/>
    </g>
</svg>
